<?xml version="1.0" standalone="no"?><!DOCTYPE svg PUBLIC "-//W3C//DTD SVG 1.1//EN" "http://www.w3.org/Graphics/SVG/1.1/DTD/svg11.dtd"><svg t="1506869224449" class="icon" style="" viewBox="0 0 1024 1024" version="1.1" xmlns="http://www.w3.org/2000/svg" p-id="4082" xmlns:xlink="http://www.w3.org/1999/xlink" width="200" height="200"><defs><style type="text/css"></style></defs><path d="M557.110407 804.621571 155.286716 804.621571c-17.031908 0-30.912034-13.847379-30.912034-30.912034L124.374682 279.162024c0-17.031908 13.880125-30.912034 30.912034-30.912034l92.729961 0c17.058514 0 30.905894-13.847379 30.905894-30.912034 0-17.058514-13.847379-30.905894-30.905894-30.905894l-92.729961 0c-51.126424 0-92.729961 41.603537-92.729961 92.729961l0 494.547513c0 51.126424 41.603537 92.729961 92.729961 92.729961l401.823692 0c17.092283 0 30.905894-13.81361 30.905894-30.912034C588.016301 818.435181 574.202691 804.621571 557.110407 804.621571L557.110407 804.621571zM495.28634 248.249991l309.094754 0c17.064654 0 30.912034 13.880125 30.912034 30.912034L835.293127 526.432711c0 17.098423 13.81361 30.912034 30.912034 30.912034 17.092283 0 30.905894-13.81361 30.905894-30.912034L897.111055 279.162024c0-51.126424-41.603537-92.729961-92.729961-92.729961L495.28634 186.432063c-17.058514 0-30.905894 13.847379-30.905894 30.905894C464.380446 234.402611 478.228849 248.249991 495.28634 248.249991L495.28634 248.249991zM711.657272 325.523935c0-12.140505 4.993734-24.200168 13.57825-32.783661 8.583492-8.584516 20.643156-13.57825 32.783661-13.57825 12.140505 0 24.200168 4.993734 32.783661 13.57825 8.584516 8.583492 13.57825 20.643156 13.57825 32.783661 0 12.140505-4.993734 24.200168-13.57825 32.783661-8.583492 8.584516-20.643156 13.57825-32.783661 13.57825-12.140505 0-24.200168-4.993734-32.783661-13.57825C716.651007 349.72308 711.657272 337.66444 711.657272 325.523935L711.657272 325.523935zM309.833581 155.520029l123.635855 0c17.092283 0 30.912034-13.81361 30.912034-30.905894 0-17.098423-13.81975-30.912034-30.912034-30.912034l-123.635855 0c-17.092283 0-30.912034 13.81361-30.912034 30.912034C278.921547 141.706419 292.741297 155.520029 309.833581 155.520029L309.833581 155.520029zM928.022065 742.803643l-92.729961 0 0-92.729961c0-17.092283-13.81361-30.912034-30.912034-30.912034-17.092283 0-30.905894 13.81975-30.905894 30.912034l0 92.729961-92.729961 0c-17.092283 0-30.912034 13.81361-30.912034 30.905894 0 17.092283 13.81975 30.912034 30.912034 30.912034l92.729961 0 0 92.729961c0 17.092283 13.81361 30.905894 30.905894 30.905894 17.098423 0 30.912034-13.81361 30.912034-30.905894l0-92.729961 92.729961 0c17.092283 0 30.905894-13.81975 30.905894-30.912034C958.927959 756.617254 945.114348 742.803643 928.022065 742.803643L928.022065 742.803643zM928.022065 742.803643M713.053062 512.001023c0-4.00829-1.042749-7.734148-2.736321-11.078313 0.011256-0.021489 0.017396-0.047072 0.026606-0.073678-0.132006-0.213871-0.281409-0.417509-0.414439-0.63752-0.6191-1.130753-1.303692-2.202155-2.087545-3.215228-41.62298-66.014506-109.428272-111.26613-187.43695-118.30136-22.388916-26.697035-51.215452-49.095161-84.647889-65.309448-0.076748 0.141216-0.170892 0.265036-0.2415 0.402159-2.298346-1.221828-4.886287-1.981121-7.66968-1.981121-9.091052 0-16.454764 7.369851-16.454764 16.454764l0 66.384943c-35.882232 14.354939-67.849294 37.279045-93.886297 66.396199-3.960195 4.01136-13.104459 15.306614-24.036439 15.306614-7.752568 0-16.305361-10.582009-22.272259-17.450441-36.246529-35.728736-72.101131-51.503001-88.668459-35.896558-13.963013 13.154601-7.000438 43.597961 10.409071 72.372308 5.420453 10.576893 9.939373 14.167674 10.030447 19.370163 0.141216 8.200776-5.012154 10.273994-9.68457 19.796882-16.372899 27.971052-22.430872 57.06467-9.592472 70.776973 10.038634 10.723226 53.449329-4.944616 79.609129-35.725666 9.111518-10.066263 15.501042-21.937638 27.424606-21.937638 16.144702 0 22.300912 11.070126 26.764574 15.321964 26.051329 29.107945 58.018392 52.02591 93.900623 66.381873l0 60.900022c0.337691 0 0.645706 0.069585 0.977257 0.078795-0.590448 1.700735-0.977257 3.499707-0.977257 5.405103 0 9.084912 7.363711 16.452717 16.451694 16.452717 3.567245 0 6.853082-1.165546 9.546424-3.091408 0.066515 0.205685 0.176009 0.39295 0.240477 0.601704 32.640398-16.127306 60.804854-38.195927 82.769099-64.396659 78.014818-7.039323 145.82011-52.286854 187.44309-118.30443 0.780783-1.013073 1.468444-2.082428 2.087545-3.207042 0.128937-0.226151 0.279363-0.428765 0.414439-0.642636-0.00921-0.026606-0.01535-0.053212-0.026606-0.076748C712.010313 519.735172 713.053062 516.006244 713.053062 512.001023L713.053062 512.001023zM592.387865 547.650965c-18.172895 0-32.907481-14.734586-32.907481-32.907481 0-18.174941 14.734586-32.907481 32.907481-32.907481 18.171871 0 32.907481 14.731516 32.907481 32.907481C625.295346 532.916379 610.56076 547.650965 592.387865 547.650965L592.387865 547.650965zM592.387865 547.650965" p-id="4083"></path></svg>